# Blender v2.83.3 OBJ File: ''
# www.blender.org
mtllib 6.mtl
o 6.001
v 0.493000 0.840234 -0.864619
v 0.325132 0.194855 -0.174678
v 0.274324 -0.131022 0.420048
v 0.430000 -0.141000 1.245000
v 0.590283 -0.130978 0.419952
v 0.600067 0.195145 -0.175322
v 0.257000 -0.200000 0.238000
v 0.438000 -0.200000 -0.298000
v 0.436000 -0.397000 0.160000
v 0.615000 -0.200000 0.238000
v -0.375925 0.169161 -0.157270
v -0.009000 -0.125000 1.325000
v 0.001350 0.002500 2.050000
v 0.431000 -0.200000 1.220000
v 0.583000 -0.132000 0.434000
v 0.960000 -0.178000 -0.146000
v 0.583000 0.220000 -0.180000
v 0.583000 -0.178000 -0.146000
v 0.740000 0.102000 -0.516000
v 0.910000 -0.206000 -0.174000
v 1.074000 -0.262000 -0.783000
v 0.964000 -0.070000 -0.804000
v 1.198000 -0.347000 -0.898000
v 1.114000 -0.114000 -1.118000
v 1.580000 -0.060000 -1.980000
v 0.968000 -0.143000 -1.122000
v 0.540000 0.135000 -0.235000
v 0.620000 0.080000 -0.065000
v 0.543000 -0.024000 -0.693000
v 0.400000 0.050500 -0.400000
v 0.740000 -0.144000 -1.004000
v -0.533000 0.840234 -0.864619
v -0.470000 -0.141000 1.245000
v -0.314324 -0.131022 0.420048
v -0.365132 0.194855 -0.174678
v -0.640067 0.195145 -0.175322
v -0.630283 -0.130978 0.419952
v -0.297000 -0.200000 0.238000
v -0.476000 -0.397000 0.160000
v -0.478000 -0.200000 -0.298000
v -0.655000 -0.200000 0.238000
v -0.471000 -0.200000 1.220000
v -0.623000 -0.132000 0.434000
v -0.623000 0.220000 -0.180000
v -1.000000 -0.178000 -0.146000
v -0.623000 -0.178000 -0.146000
v -0.780000 0.102000 -0.516000
v -1.004000 -0.070000 -0.804000
v -1.114000 -0.262000 -0.783000
v -0.950000 -0.206000 -0.174000
v -1.154000 -0.114000 -1.118000
v -1.238000 -0.347000 -0.898000
v -1.620000 -0.060000 -1.980000
v -1.008000 -0.143000 -1.122000
v -0.660000 0.080000 -0.065000
v -0.580000 0.135000 -0.235000
v -0.583000 -0.024000 -0.693000
v -0.440000 0.050500 -0.400000
v -0.780000 -0.144000 -1.004000
v -0.022813 0.298041 0.159618
v -0.014545 0.288960 0.151571
v -0.006266 0.298046 0.159638
v 0.001928 0.303369 0.160311
v -0.014285 0.321175 0.157445
v -0.030518 0.303358 0.160350
v 0.063791 0.306727 0.089637
v -0.014555 0.265488 0.089637
v -0.014280 0.360588 0.089637
v -0.092626 0.306727 0.089637
v -0.014280 0.386383 0.089637
v -0.092626 0.390698 0.056158
v 0.063791 0.390698 0.056158
v 0.010280 0.428368 0.059633
v -0.043231 0.428368 0.059633
v -0.092626 0.390698 0.016642
v -0.092626 0.306727 0.016642
v -0.014555 0.265488 0.016642
v 0.063791 0.306727 0.016642
v 0.063791 0.390698 0.016642
v 0.042922 0.435368 0.016642
v -0.075873 0.435368 0.016642
v 0.085590 0.429896 0.056158
v 0.058852 0.479135 0.044633
v 0.085590 0.429896 0.016642
v 0.053077 0.455536 0.016642
v -0.093723 0.477489 0.044633
v -0.115590 0.429042 0.056158
v -0.087949 0.453889 0.016642
v -0.115590 0.429042 0.016642
v 0.028111 0.403232 -0.019032
v -0.059541 0.403232 -0.019032
v 0.038655 0.384200 -0.019032
v 0.038655 0.321902 -0.019032
v -0.014534 0.293905 -0.019032
v -0.067489 0.321877 -0.019032
v -0.067489 0.385360 -0.019032
v 0.047885 0.151209 0.007755
v 0.069426 0.254389 -0.010361
v 0.069426 0.254389 0.066697
v 0.047885 0.151209 0.048581
v -0.097162 0.254389 -0.010361
v -0.075622 0.151209 0.007755
v -0.075622 0.151209 0.048581
v -0.097162 0.254389 0.066697
v -0.076847 0.270305 0.047526
v -0.076847 0.270305 0.008810
v 0.049110 0.270305 0.008810
v 0.049110 0.270305 0.047526
v -0.013868 0.266463 0.085392
v -0.013868 0.124865 0.055441
v -0.013868 0.124865 0.007755
v -0.013868 0.266463 -0.022196
v -0.013868 0.282379 0.008810
v -0.013868 0.282379 0.047526
v 0.127633 0.198187 0.007928
v 0.064733 0.465764 -0.162019
v -0.083252 0.465764 -0.162019
v -0.153029 0.198187 0.007928
v 0.046308 0.138417 0.395181
v -0.064778 0.138417 0.395181
v -0.007084 -0.123464 1.317260
v 0.357925 0.169161 -0.157270
v -0.014682 0.070101 -0.606322
v -0.375675 0.169333 -0.157864
v -0.019350 0.415000 -1.005000
v -0.106941 0.598125 -0.138833
v 0.088941 0.598125 -0.138833
v -0.190802 0.290857 0.073249
v 0.164522 0.290857 0.073249
v -0.087629 0.242810 0.464560
v 0.069629 0.242810 0.464560
v -0.106941 0.598125 -0.138833
v -0.087629 0.242810 0.464560
v 0.069629 0.242810 0.464560
v 0.088941 0.598125 -0.138833
v -0.190802 0.290857 0.073249
v 0.164522 0.290857 0.073249
vn -0.8984 0.4078 0.1628
vn -0.8985 0.4078 0.1628
vn 0.9240 0.3354 0.1836
vn -0.0005 -0.8100 -0.5865
vn -0.0000 -0.9672 -0.2539
vn -0.0008 -0.7302 -0.6832
vn -0.7516 -0.6562 -0.0675
vn -0.7637 -0.5918 -0.2579
vn 0.7507 -0.6579 -0.0611
vn 0.7638 -0.5941 -0.2522
vn 0.0001 -0.9999 -0.0121
vn -0.6411 -0.7674 0.0068
vn -0.6411 -0.7675 0.0068
vn -0.8440 -0.5260 0.1046
vn 0.7069 -0.6948 0.1325
vn -0.7090 -0.6939 0.1256
vn 0.0000 1.0000 -0.0000
vn 0.6568 0.6542 0.3750
vn -0.0000 -0.0851 -0.9964
vn 0.0000 -0.9969 0.0791
vn -1.0000 0.0000 0.0000
vn 0.6793 0.6804 0.2751
vn 0.7566 0.5636 0.3315
vn 0.7138 0.5528 0.4300
vn 0.6719 0.6220 0.4022
vn -0.1671 0.9782 -0.1233
vn -0.1935 0.9801 -0.0432
vn 0.6044 0.7177 0.3459
vn -0.0767 0.9097 -0.4081
vn -0.2570 0.8992 -0.3540
vn -0.2570 0.8992 -0.3541
vn -0.0169 0.9437 -0.3303
vn -0.0168 0.9437 -0.3303
vn -0.3948 -0.8439 -0.3632
vn -0.4308 -0.8976 -0.0930
vn -0.4133 -0.8991 0.1445
vn -0.4133 -0.8991 0.1446
vn -0.4810 -0.8341 0.2700
vn -0.4810 -0.8341 0.2701
vn -0.5499 -0.7194 0.4245
vn -0.5499 -0.7194 0.4244
vn -0.7943 0.3592 0.4900
vn 0.8984 0.4078 0.1628
vn 0.8985 0.4078 0.1628
vn -0.9240 0.3354 0.1836
vn 0.0005 -0.8100 -0.5865
vn 0.0008 -0.7302 -0.6832
vn 0.7516 -0.6562 -0.0675
vn 0.7637 -0.5918 -0.2579
vn -0.7507 -0.6579 -0.0611
vn -0.7638 -0.5941 -0.2522
vn -0.0001 -0.9999 -0.0121
vn -0.7069 -0.6948 0.1325
vn 0.7090 -0.6939 0.1256
vn -0.6568 0.6542 0.3750
vn 1.0000 0.0000 -0.0000
vn -0.6793 0.6804 0.2751
vn -0.7566 0.5636 0.3315
vn -0.7138 0.5528 0.4300
vn -0.6719 0.6220 0.4022
vn 0.1671 0.9782 -0.1233
vn 0.1935 0.9801 -0.0432
vn -0.6044 0.7177 0.3459
vn 0.0767 0.9097 -0.4081
vn 0.2570 0.8992 -0.3541
vn 0.2570 0.8992 -0.3540
vn 0.0169 0.9437 -0.3303
vn 0.0168 0.9437 -0.3303
vn 0.3948 -0.8439 -0.3632
vn 0.4308 -0.8976 -0.0930
vn 0.4133 -0.8991 0.1445
vn 0.4133 -0.8991 0.1446
vn 0.4810 -0.8341 0.2701
vn 0.4810 -0.8341 0.2700
vn 0.5499 -0.7194 0.4245
vn 0.5499 -0.7194 0.4244
vn 0.7943 0.3592 0.4900
vn -0.2341 -0.7928 0.5627
vn -0.0018 -0.8574 0.5146
vn 0.2306 -0.7882 0.5706
vn 0.0011 0.1599 0.9871
vn 0.3143 -0.9440 0.1002
vn 0.4590 -0.8720 0.1703
vn 0.4025 0.5834 0.7054
vn 0.5123 0.7425 0.4316
vn 0.2854 0.7870 0.5470
vn -0.4610 -0.8727 0.1610
vn -0.3156 -0.9442 0.0939
vn -0.2649 0.9109 0.3163
vn -0.4991 0.7260 0.4730
vn -0.0004 0.9923 0.1236
vn 0.2705 0.9169 0.2935
vn 0.0002 -0.9989 -0.0473
vn 0.1270 0.1841 0.9747
vn 0.0509 0.3624 0.9306
vn -0.1359 0.1192 0.9835
vn 0.0000 0.0000 1.0000
vn 0.2522 0.3039 0.9187
vn 0.2826 0.4097 0.8673
vn 0.1719 0.3860 0.9063
vn -0.1383 0.3249 0.9356
vn -0.9638 -0.2665 0.0000
vn -0.9608 -0.1845 -0.2069
vn -0.9533 0.0000 -0.3021
vn -0.4452 -0.8429 -0.3021
vn 0.4440 -0.8436 -0.3021
vn 0.4440 -0.8435 -0.3021
vn 0.9533 0.0000 -0.3021
vn 0.9630 -0.1739 -0.2061
vn 0.9680 -0.2511 0.0000
vn 0.0000 0.9870 0.1607
vn 0.1595 0.1363 0.9777
vn 0.1594 0.1363 0.9777
vn 0.9680 -0.2510 -0.0000
vn 0.8739 -0.4860 -0.0000
vn -0.0000 -0.0000 -1.0000
vn -0.7642 0.3848 -0.5176
vn 0.8788 0.4772 0.0000
vn -0.0482 -0.0289 0.9984
vn 0.6918 0.5795 -0.4309
vn -0.8579 -0.5138 0.0000
vn -0.8603 0.2882 -0.4205
vn -0.8603 0.2883 -0.4205
vn -0.0000 0.7430 -0.6693
vn 0.7222 0.3374 -0.6038
vn 0.7820 0.1714 -0.5992
vn 0.9004 0.1196 -0.4183
vn 0.8175 -0.0000 -0.5760
vn 0.3808 -0.7234 -0.5760
vn -0.3818 -0.7228 -0.5760
vn -0.9079 0.1007 -0.4068
vn -0.7986 0.1446 -0.5843
vn -0.8174 -0.0000 -0.5760
vn -0.7986 0.1445 -0.5843
vn -0.7626 0.2860 -0.5801
vn -0.7626 0.2860 -0.5802
vn 0.9789 -0.2044 -0.0000
vn -0.9789 -0.2044 0.0000
vn -0.4248 0.8740 -0.2360
vn -0.4142 0.8879 0.1999
vn -0.3404 0.9309 0.1327
vn -0.3481 0.9243 -0.1568
vn 0.6167 0.7872 -0.0000
vn 0.4287 0.8642 -0.2632
vn 0.3511 0.9198 -0.1749
vn 0.4141 0.9102 -0.0000
vn 0.1855 -0.2074 0.9605
vn -0.0005 -0.2090 0.9779
vn -0.0004 -0.2090 0.9779
vn -0.1863 -0.2033 0.9612
vn 0.0805 -0.1886 -0.9787
vn -0.0037 -0.1981 -0.9802
vn -0.0038 -0.1981 -0.9802
vn -0.0879 -0.2061 -0.9746
vn 0.0015 0.8762 -0.4820
vn 0.0008 0.9686 -0.2487
vn 0.1812 0.9449 0.2725
vn -0.0036 0.9714 0.2373
vn -0.0070 0.8874 0.4610
vn 0.1603 0.8362 0.5244
vn 0.3414 0.9214 0.1855
vn -0.3924 -0.9198 0.0000
vn 0.3924 -0.9198 0.0000
vn 0.0000 0.5361 0.8441
vn 0.0000 0.9883 0.1525
vn 0.8162 -0.5709 0.0887
vn 0.6177 -0.7864 -0.0032
vn 0.6702 -0.7227 -0.1688
vn -0.5694 -0.7699 -0.2880
vn -0.3682 -0.9252 -0.0917
vn -0.7119 -0.5352 -0.4547
vn 0.5633 -0.7709 -0.2974
vn 0.7057 -0.5317 -0.4683
vn 0.0000 0.9784 -0.2068
vn -0.7553 0.6357 0.1594
vn -0.7689 0.5490 0.3276
vn -0.8451 0.5257 0.0975
vn 0.8448 0.5254 0.1012
vn 0.7532 0.5676 0.3323
vn 0.7450 0.6488 0.1553
vn -0.6512 0.7276 0.2157
vn 0.6296 0.7499 0.2031
vn 0.2781 0.9479 0.1556
vn -0.2846 0.9453 0.1593
vn -0.0043 0.9855 0.1694
vn -0.4585 0.8647 0.2053
vn -0.7553 0.6356 0.1594
vn 0.7450 0.6487 0.1553
vn 0.4415 0.8757 0.1954
vn -0.9700 0.2092 0.1239
vn -0.9060 0.0658 0.4182
vn -0.9059 0.0658 0.4183
vn 0.0000 -0.1725 0.9850
vn 0.8838 0.0773 0.4615
vn 0.8648 0.4724 -0.1700
vn 0.8649 0.4724 -0.1700
vn -0.0000 0.5535 -0.8328
vn -0.9261 0.3293 -0.1842
vn 0.8234 0.5255 -0.2141
vn -0.8271 0.5270 -0.1951
vn 0.0000 0.8617 0.5074
vn -0.8599 0.4274 0.2792
vn 0.8795 0.3972 0.2621
usemtl initialShadingGroup.003
s 1
f 1//1 2//2 3//1 4//1
f 4//3 5//3 6//3 1//3
f 2//4 6//4 5//5 3//5
f 6//4 2//4 1//6
f 7//7 8//8 9//7
f 10//9 9//9 8//10
f 3//5 5//5 4//11
f 11//12 12//13 13//14
f 14//15 9//9 10//9
f 7//7 9//7 14//16
f 8//17 7//17 14//17 10//17
f 15//18 16//18 17//18
f 16//19 18//19 17//19
f 15//20 18//20 16//20
f 18//21 15//21 17//21
f 19//22 20//22 21//23 22//23
f 21//23 23//24 24//24 22//23
f 23//24 25//25 24//24
f 24//26 25//27 26//26
f 19//22 27//28 28//28 20//22
f 29//29 30//30 27//31 19//29
f 22//32 24//26 26//26 31//33
f 22//32 31//33 29//29 19//29
f 25//34 23//35 26//35
f 21//36 31//37 26//35 23//35
f 31//37 21//36 20//38 29//39
f 28//40 30//41 29//39 20//38
f 27//42 30//42 28//42
f 32//43 33//43 34//43 35//44
f 33//45 32//45 36//45 37//45
f 35//46 34//5 37//5 36//46
f 36//46 32//47 35//46
f 38//48 39//48 40//49
f 41//50 40//51 39//50
f 34//5 33//52 37//5
f 42//53 41//50 39//50
f 38//48 42//54 39//48
f 40//17 41//17 42//17 38//17
f 43//55 44//55 45//55
f 45//19 44//19 46//19
f 43//20 45//20 46//20
f 46//56 44//56 43//56
f 47//57 48//58 49//58 50//57
f 49//58 48//58 51//59 52//59
f 52//59 51//59 53//60
f 51//61 54//61 53//62
f 47//57 50//57 55//63 56//63
f 57//64 47//64 56//65 58//66
f 48//67 59//68 54//61 51//61
f 48//67 47//64 57//64 59//68
f 53//69 54//70 52//70
f 49//71 52//70 54//70 59//72
f 59//72 57//73 50//74 49//71
f 55//75 50//74 57//73 58//76
f 56//77 55//77 58//77
f 60//78 61//79 62//80
f 63//81 64//81 65//81
f 66//82 62//80 61//79 67//83
f 68//84 64//85 63//85 66//86
f 67//87 61//79 60//78 69//88
f 69//89 65//90 64//90 68//90
f 60//91 62//91 66//92 69//89
f 63//93 65//93 69//88 66//82
f 68//94 70//95 71//96 69//97
f 66//84 72//98 70//95 68//99
f 72//98 73//100 70//95
f 70//95 74//101 71//96
f 70//95 73//100 74//101
f 71//102 75//103 76//104 69//21
f 69//88 76//105 77//105 67//87
f 67//83 77//106 78//107 66//82
f 66//56 78//108 79//109 72//110
f 73//111 80//111 81//111 74//111
f 73//100 72//98 82//112 83//113
f 72//114 79//114 84//115 82//115
f 79//116 80//116 85//116 84//116
f 80//117 73//117 83//117 85//117
f 82//118 84//118 85//118 83//118
f 71//96 74//101 86//119 87//119
f 74//120 81//120 88//120 86//120
f 81//116 75//116 89//116 88//116
f 75//102 71//102 87//121 89//121
f 86//122 88//123 89//122 87//123
f 81//124 80//124 90//124 91//124
f 80//125 79//126 92//126 90//125
f 79//127 78//108 93//128 92//126
f 78//107 77//106 94//129 93//129
f 77//105 76//105 95//130 94//130
f 76//104 75//131 96//132 95//133
f 75//134 81//135 91//136 96//132
f 95//116 96//116 92//116 93//116
f 92//116 96//116 91//116 90//116
f 94//116 95//116 93//116
f 97//137 98//137 99//137 100//137
f 101//138 102//138 103//138 104//138
f 101//139 104//140 105//141 106//142
f 99//143 98//144 107//145 108//146
f 99//147 109//148 110//149 100//147
f 109//148 104//150 103//150 110//149
f 97//151 111//152 112//153 98//151
f 111//152 102//154 101//154 112//153
f 98//144 112//155 113//156 107//145
f 112//155 101//139 106//142 113//156
f 108//157 114//158 109//159 99//160
f 114//158 105//141 104//140 109//159
f 107//145 113//156 114//158 108//161
f 113//156 106//142 105//141 114//158
f 103//162 102//162 111//162 110//162
f 97//163 100//163 110//163 111//163
f 115//164 116//164 117//164 118//164
f 119//165 115//165 118//165 120//165
f 13//166 12//166 121//167 122//168
f 123//169 121//170 12//13 11//12 124//169
f 125//171 123//169 124//169
f 121//167 123//172 122//168
f 125//173 122//168 123//172
f 126//174 127//174 125//174
f 11//175 128//176 126//177
f 127//178 129//179 122//180
f 128//176 11//175 130//181
f 122//180 129//179 131//182
f 131//183 130//184 13//185
f 130//186 11//187 13//184
f 13//183 122//188 131//189
f 129//190 127//191 116//192 115//190
f 127//193 126//193 117//193 116//193
f 126//194 128//194 118//194 117//194
f 128//195 130//195 120//195 118//196
f 130//197 131//197 119//197 120//197
f 131//198 129//190 115//190 119//198
f 122//180 125//199 127//178
f 126//177 125//200 124//200 11//175
f 132//201 133//201 134//201 135//201
f 133//202 132//202 136//202
f 135//203 134//203 137//203
