# Blender v2.83.2 OBJ File: ''
# www.blender.org
mtllib vragfifth1.mtl
o vrag
v 6.914215 1.210855 -3.421278
v 6.657176 1.140076 -3.421278
v 6.548020 2.039444 -3.662487
v 6.679956 2.270715 -3.648860
v 3.545373 2.806568 -0.958698
v 3.376221 2.874112 -1.041204
v 6.472141 -1.226719 7.668728
v 6.465642 -1.227818 1.253253
v 6.128879 -4.120790 -0.070405
v 6.958283 -0.914223 7.669559
v 6.691677 -0.914223 7.669559
v 6.708839 -2.638480 7.817820
v 6.914215 1.210853 7.669559
v 6.705731 1.765766 7.669559
v 6.543046 1.554549 7.669559
v 6.657176 1.140075 7.669559
v 6.277442 -4.747725 0.276764
v 5.323763 -4.556426 -1.558186
v 5.472326 -4.672005 -1.625659
v 3.717025 4.559063 0.124100
v 3.547873 4.626608 0.041595
v 6.460907 -1.228618 -3.422103
v 6.691677 -0.914222 1.254081
v 7.142590 -0.622757 -3.421278
v 6.657176 1.140075 1.254081
v 6.543046 1.554550 1.254081
v 7.035254 1.794775 0.988620
v 6.914215 1.210854 1.254081
v 6.958283 -0.914221 -3.421278
v 6.697605 -1.351307 -3.422322
v 6.702341 -1.141957 1.579332
v 6.958283 -0.914222 1.254081
v 6.707388 0.972280 -0.219823
v 6.736693 0.865854 -0.418128
v 6.782337 0.700093 -0.575504
v 6.839852 0.491222 -0.676546
v 6.903608 0.259685 -0.711362
v 6.967364 0.028149 -0.676546
v 7.024879 -0.180722 -0.575504
v 6.695541 -0.628730 -0.418128
v 6.695541 -0.739116 -0.219823
v 6.695541 -0.777153 -0.000000
v 6.695541 -0.739116 0.219823
v 6.695541 -0.628730 0.418128
v 6.695541 -0.456799 0.575504
v 6.967364 0.028149 0.676546
v 6.903608 0.259685 0.711362
v 6.839852 0.491220 0.676546
v 6.782338 0.700092 0.575504
v 6.736693 0.865854 0.418128
v 6.707388 0.972279 0.219823
v 6.697290 1.008951 0.000000
v 6.903608 0.259685 -0.000000
v 5.804712 0.723719 -0.219823
v 5.849981 0.621689 -0.418128
v 5.907382 0.459165 -0.575504
v 5.971297 0.252056 -0.676546
v 6.035470 0.020634 -0.711362
v 6.093619 -0.212446 -0.676546
v 6.140051 -0.424369 -0.575504
v 5.761731 -0.628730 -0.418128
v 5.742700 -0.739116 -0.219823
v 5.722548 -0.777153 -0.000000
v 5.703249 -0.739116 0.219823
v 5.686692 -0.628730 0.418128
v 5.674497 -0.456799 0.575504
v 5.976558 -0.244679 0.676546
v 5.912386 -0.013259 0.711362
v 5.854237 0.219821 0.676546
v 5.807805 0.431745 0.575504
v 5.777634 0.601767 0.418128
v 5.766677 0.713244 0.219823
v 5.776008 0.755266 0.000000
v 6.700830 -1.350762 -0.815242
v 6.701360 -0.781509 0.077171
v 5.961200 -4.717983 -1.046903
v 6.310892 -4.480275 -0.222791
v 6.781723 -1.215190 -0.557960
vt 0.626409 0.064408
vt 0.648603 0.107966
vt 0.500000 0.150000
vt 0.591842 0.029841
vt 0.548284 0.007647
vt 0.500000 -0.000000
vt 0.451716 0.007647
vt 0.408159 0.029841
vt 0.373591 0.064409
vt 0.351397 0.107966
vt 0.343750 0.156250
vt 0.351397 0.204534
vt 0.373591 0.248091
vt 0.408159 0.282659
vt 0.451716 0.304853
vt 0.500000 0.312500
vt 0.548284 0.304853
vt 0.591841 0.282659
vt 0.626409 0.248091
vt 0.648603 0.204534
vt 0.656250 0.156250
vt 0.550000 0.383364
vt 0.562500 0.382963
vt 0.575000 0.382170
vt 0.587500 0.381064
vt 0.600000 0.379752
vt 0.612500 0.378364
vt 0.375000 0.377033
vt 0.387500 0.375892
vt 0.400000 0.375052
vt 0.412500 0.374594
vt 0.425000 0.374564
vt 0.437500 0.374965
vt 0.450000 0.375757
vt 0.462500 0.376864
vt 0.475000 0.378175
vt 0.487500 0.379564
vt 0.500000 0.380894
vt 0.512500 0.382036
vt 0.525000 0.382876
vt 0.537500 0.383334
vt 0.600000 0.312500
vt 0.612500 0.312500
vt 0.587500 0.312500
vt 0.575000 0.312500
vt 0.562500 0.312500
vt 0.550000 0.312500
vt 0.537500 0.312500
vt 0.525000 0.312500
vt 0.512500 0.312500
vt 0.500000 0.312500
vt 0.487500 0.312500
vt 0.475000 0.312500
vt 0.462500 0.312500
vt 0.450000 0.312500
vt 0.437500 0.312500
vt 0.425000 0.312500
vt 0.412500 0.312500
vt 0.400000 0.312500
vt 0.387500 0.312500
vt 0.375000 0.312500
vt 0.625000 0.312500
vt 0.625000 0.377033
vt 0.575693 0.975346
vt 0.575693 0.975346
vt 0.575693 0.975346
vt 0.575693 0.975346
vt 0.575693 0.975346
vt 0.575693 0.975346
vt 0.575693 0.975346
vt 0.575693 0.975346
vt 0.575693 0.975346
vt 0.575693 0.975346
vt 0.575693 0.975346
vt 0.575693 0.975346
vt 0.575693 0.975346
vt 0.575693 0.975346
vt 0.575693 0.975346
vt 0.575693 0.975346
vt 0.575693 0.975346
vt 0.575693 0.975346
vt 0.575693 0.975346
vt 0.575693 0.975346
vt 0.575693 0.975346
vt 0.575693 0.975346
vt 0.575693 0.975346
vt 0.575693 0.975346
vt 0.575693 0.975346
vt 0.575693 0.975346
vt 0.575693 0.975346
vt 0.575693 0.975346
vt 0.575693 0.975346
vt 0.575693 0.975346
vt 0.575693 0.975346
vt 0.575693 0.975346
vt 0.575693 0.975346
vt 0.575693 0.975346
vt 0.575693 0.975346
vt 0.575693 0.975346
vt 0.575693 0.975346
vn 0.9641 0.2655 -0.0000
vn 0.9977 0.0618 0.0289
vn 0.9472 -0.1250 0.2952
vn 0.9586 -0.2687 0.0939
vn 0.9797 -0.1898 -0.0647
vn 0.9805 -0.1968 -0.0000
vn 0.9797 -0.1898 0.0647
vn 0.9773 -0.1687 0.1279
vn 0.9666 -0.2541 0.0331
vn 0.9827 -0.1263 -0.1358
vn -0.7212 0.0166 0.6925
vn -0.7441 0.2223 0.6300
vn -0.7594 0.3962 0.5162
vn -0.7690 0.5356 0.3488
vn -0.7690 0.6210 0.1519
vn -0.7605 0.6456 -0.0702
vn -0.7432 0.6054 -0.2849
vn -0.7179 0.5067 -0.4775
vn -0.6901 0.3702 -0.6219
vn -0.6586 0.2003 -0.7253
vn -0.6279 0.0144 -0.7782
vn -0.5980 -0.1877 -0.7792
vn -0.3364 -0.4054 -0.8500
vn -0.6762 -0.5350 -0.5065
vn -0.6578 -0.6791 -0.3257
vn -0.6739 -0.7344 -0.0806
vn -0.6905 -0.7032 0.1695
vn -0.7054 -0.5908 0.3916
vn -0.7457 -0.4179 0.5189
vn -0.3996 -0.2303 0.8873
vn -0.2502 0.9086 0.3345
vn -0.2655 0.9641 0.0000
vn -0.2079 0.7551 0.6217
vn -0.1470 0.5339 0.8327
vn -0.0757 0.2749 0.9585
vn -0.0000 -0.0000 1.0000
vn 0.0393 -0.1963 0.9797
vn 0.0255 -0.4766 0.8788
vn 0.0000 -0.7833 0.6217
vn 0.0000 -0.9424 0.3345
vn 0.0000 -1.0000 -0.0000
vn 0.0000 -0.9424 -0.3345
vn 0.0411 -0.6747 -0.7370
vn 0.0974 -0.4324 -0.8964
vn 0.0757 -0.2749 -0.9585
vn 0.0000 0.0000 -1.0000
vn -0.0757 0.2748 -0.9585
vn -0.1470 0.5339 -0.8327
vn -0.2079 0.7552 -0.6217
vn -0.2502 0.9086 -0.3345
vn 0.9625 0.2381 0.1303
vn 0.1870 -0.1975 -0.9623
vn 0.9615 0.2627 -0.0807
vn -0.2029 0.8080 -0.5531
vn -0.6551 -0.2462 -0.7143
vn -0.8898 -0.3638 -0.2755
vn 0.0047 0.9890 0.1481
vn -0.9933 0.1152 0.0010
vn -0.0563 0.0850 0.9948
vn 0.1305 -0.9693 0.2084
vn -0.9817 -0.1606 0.1024
vn -0.9716 -0.2316 -0.0482
vn 0.0686 -0.9399 0.3344
vn -0.7282 -0.3260 0.6028
vn -0.9003 -0.4253 -0.0928
vn 0.1631 -0.9537 -0.2527
vn 0.3427 -0.8798 0.3295
vn 0.6477 -0.7618 0.0082
vn -0.5161 -0.7136 0.4738
vn -0.4755 -0.1274 0.8705
vn -0.8915 0.3297 -0.3108
vn -0.8747 0.2679 -0.4038
vn -0.7116 0.7025 -0.0121
vn -0.6884 0.7253 -0.0004
vn -0.9855 -0.1692 -0.0091
vn -0.9800 -0.1991 -0.0004
vn -0.9650 0.2382 0.1099
vn -0.7284 -0.6851 -0.0000
vn 0.9861 0.0439 -0.1602
vn 0.9977 0.0582 -0.0351
vn 0.9992 0.0261 -0.0305
vn 0.9933 -0.0061 -0.1156
vn 0.3925 0.8893 -0.2346
vn 0.3849 0.8899 -0.2448
vn 0.3644 0.8906 -0.2722
vn 0.2705 0.9420 -0.1985
vn 0.9963 0.0824 0.0253
vn 0.9983 0.0502 0.0300
vn 0.5924 0.8038 0.0553
vn 0.6244 0.7804 0.0342
vn 0.5472 0.8333 0.0790
vn -0.7564 0.6541 0.0004
vn -0.7961 0.6051 0.0093
vn -0.8147 0.5798 0.0004
vn -0.4959 -0.8467 0.1927
vn -0.9641 -0.2655 0.0000
vn -0.9552 -0.2957 0.0090
vn -0.9348 -0.3551 -0.0000
vn -0.0733 0.9322 0.3544
vn 0.2100 0.9338 -0.2897
vn -0.9520 0.0151 0.3057
vn -0.9127 0.0964 0.3972
vn 0.2655 -0.9641 -0.0000
vn 0.2553 -0.9272 0.2741
vn -0.9939 -0.1018 -0.0425
vn -0.9855 -0.1643 -0.0432
vn -0.9895 -0.1348 -0.0519
vn 0.4904 -0.8675 -0.0838
vn 0.9297 -0.3439 -0.1320
vn 0.0012 0.0007 -1.0000
vn 0.8247 -0.4985 -0.2672
vn 0.8761 -0.4606 -0.1425
vn -0.5110 -0.7713 -0.3793
vn -0.3657 -0.3458 -0.8641
vn 0.9356 -0.3150 -0.1596
vn 0.9415 -0.3015 -0.1505
vn 0.9088 -0.4098 -0.0790
vn 0.9195 -0.3434 -0.1912
vn 0.9814 -0.1877 0.0397
vn 0.9768 -0.2058 -0.0590
vn 0.9938 -0.1083 -0.0244
vn 0.9884 -0.1513 -0.0124
vn 0.9658 -0.2576 -0.0310
vn 0.9748 -0.2192 -0.0423
vn 0.8826 -0.4627 -0.0834
vn 0.8764 -0.4813 0.0154
vn 0.8607 -0.5092 -0.0005
vn 0.8529 -0.5044 -0.1343
vn 0.0000 1.0000 0.0000
vn 0.0000 0.9617 0.2741
vn -0.9995 0.0315 0.0090
vn -0.9956 0.0942 -0.0000
vn 0.9861 0.1438 -0.0828
vn 0.1775 0.9806 -0.0828
vn 0.9964 -0.0186 -0.0828
vn 0.9948 0.0599 -0.0828
vn 0.9971 0.0756 -0.0000
vn 0.9994 -0.0342 -0.0000
vn -0.9998 0.0202 0.0090
vn -0.0199 0.9615 0.2741
vn 0.0199 -0.9615 0.2741
vn -0.9914 -0.1302 0.0090
vn -0.4830 -0.8731 0.0663
vn -0.4631 -0.8845 0.0564
vn 0.9579 -0.1996 -0.2064
vn 0.9785 -0.1496 -0.1420
vn 0.9810 -0.1384 -0.1357
vn 0.9804 -0.1470 -0.1310
vn 0.8394 -0.5006 -0.2118
vn 0.8264 -0.5499 -0.1214
vn 0.8196 -0.4807 -0.3117
vn 0.9944 -0.1029 -0.0253
vn 0.9940 -0.1029 -0.0360
usemtl initialShadingGroup
s 1
f 34/1/1 33/2/1 53/3/2
f 35/4/1 34/1/1 53/3/2
f 36/5/1 35/4/1 53/3/2
f 37/6/1 36/5/1 53/3/2
f 38/7/1 37/6/1 53/3/2
f 39/8/3 38/7/1 53/3/2
f 40/9/4 39/8/3 53/3/2
f 41/10/5 40/9/4 53/3/2
f 42/11/6 41/10/5 53/3/2
f 43/12/7 42/11/6 53/3/2
f 44/13/8 43/12/7 53/3/2
f 45/14/9 44/13/8 53/3/2
f 46/15/10 45/14/9 53/3/2
f 47/16/1 46/15/10 53/3/2
f 48/17/1 47/16/1 53/3/2
f 49/18/1 48/17/1 53/3/2
f 50/19/1 49/18/1 53/3/2
f 51/20/1 50/19/1 53/3/2
f 52/21/1 51/20/1 53/3/2
f 33/2/1 52/21/1 53/3/2
f 68/22/11 69/23/12 70/24/13 71/25/14 72/26/15 73/27/16 54/28/17 55/29/18 56/30/19 57/31/20 58/32/21 59/33/22 60/34/23 61/35/24 62/36/25 63/37/26 64/38/27 65/39/28 66/40/29 67/41/30
f 51/42/31 52/43/32 73/27/16 72/26/15
f 50/44/33 51/42/31 72/26/15 71/25/14
f 49/45/34 50/44/33 71/25/14 70/24/13
f 48/46/35 49/45/34 70/24/13 69/23/12
f 47/47/36 48/46/35 69/23/12 68/22/11
f 46/48/37 47/47/36 68/22/11 67/41/30
f 45/49/38 46/48/37 67/41/30 66/40/29
f 44/50/39 45/49/38 66/40/29 65/39/28
f 43/51/40 44/50/39 65/39/28 64/38/27
f 42/52/41 43/51/40 64/38/27 63/37/26
f 41/53/42 42/52/41 63/37/26 62/36/25
f 40/54/43 41/53/42 62/36/25 61/35/24
f 39/55/44 40/54/43 61/35/24 60/34/23
f 38/56/45 39/55/44 60/34/23 59/33/22
f 37/57/46 38/56/45 59/33/22 58/32/21
f 36/58/47 37/57/46 58/32/21 57/31/20
f 35/59/48 36/58/47 57/31/20 56/30/19
f 34/60/49 35/59/48 56/30/19 55/29/18
f 33/61/50 34/60/49 55/29/18 54/28/17
f 52/43/32 33/62/50 54/63/17 73/27/16
usemtl lambert8SG
s off
f 1/64/51 2/65/52 3/66/52 4/67/53
f 4/67/54 3/66/55 5/68/56 6/69/57
f 7/70/58 8/71/58 9/72/58
f 10/73/59 11/74/59 7/70/59 12/75/59
f 13/76/36 14/77/36 15/78/36 16/79/36
f 12/75/60 7/70/61 9/72/62 17/80/63
f 9/72/64 18/81/65 19/82/66 76/83/67 17/80/68
f 5/68/69 20/84/70 21/85/71 6/69/72
f 22/86/73 8/71/73 23/87/74 24/88/73
f 2/65/75 25/89/76 26/90/75 3/66/75
f 8/71/77 22/86/77 18/81/77 9/72/77
f 20/84/78 26/90/78 15/78/78
f 4/67/79 27/91/80 28/92/81 1/64/82
f 27/91/83 4/67/84 6/69/85 21/85/86
f 13/76/87 28/92/88 27/91/87 14/77/87
f 14/77/89 27/91/90 21/85/91
f 11/74/92 23/87/93 8/71/94 7/70/94
f 3/66/95 26/90/95 20/84/95 5/68/95
f 15/78/96 26/90/96 25/89/97 16/79/98
f 14/77/99 21/85/100 20/84/101 15/78/102
f 13/76/103 16/79/98 25/89/97 28/92/104
f 23/87/105 25/89/106 2/65/107 24/88/107
f 29/93/108 30/94/109 22/86/110 24/88/110
f 30/94/111 19/82/112 18/81/113 22/86/114
f 30/94/115 74/95/116 76/83/117 19/82/118
f 17/80/119 77/96/120 31/97/121 12/75/122
f 12/75/123 31/97/123 32/98/124 10/73/123
f 29/93/125 32/98/126 78/99/127 74/95/127 30/94/128
f 10/73/129 32/98/130 23/87/131 11/74/132
f 1/64/133 29/93/134 24/88/46 2/65/46
f 29/93/135 1/64/136 28/92/137 32/98/138
f 23/87/139 32/98/140 28/92/141 25/89/142
f 74/95/143 78/99/143 32/98/144 31/97/143 75/100/143
f 76/83/145 74/95/146 75/100/147 77/96/148
f 77/96/149 17/80/150 76/83/151
f 77/96/152 75/100/153 31/97/152
