# Blender v2.83.2 OBJ File: ''
# www.blender.org
mtllib vragfifth5.mtl
o vrag.002
v -6.984881 1.504572 -3.421278
v -6.771960 1.344124 -3.421278
v -4.678914 4.509318 -1.675696
v -4.519222 4.388982 -1.675696
v -7.038566 0.914221 7.669559
v -6.771960 0.914221 7.669559
v -6.771960 1.344122 7.669559
v -6.984881 1.504570 7.669559
v -4.678914 4.509318 0.391466
v -4.519222 4.388982 0.391466
v -6.771960 1.344123 1.254081
v -6.771960 0.914222 1.254081
v -7.038566 0.914222 1.254081
v -6.984881 1.504571 1.254081
v -7.029867 1.009881 -3.421278
v -6.771960 1.083297 -3.421278
v -6.771960 0.914222 0.730760
v -7.038566 0.914222 -1.132954
v -6.771960 0.892912 1.254081
v -7.038566 0.817020 1.254081
vt 0.575693 0.975346
vt 0.575693 0.975346
vt 0.575693 0.975346
vt 0.575693 0.975346
vt 0.575693 0.975346
vt 0.575693 0.975346
vt 0.575693 0.975346
vt 0.575693 0.975346
vt 0.575693 0.975346
vt 0.575693 0.975346
vt 0.575693 0.975346
vt 0.575693 0.975346
vt 0.575693 0.975346
vt 0.575693 0.975346
vt 0.575693 0.975346
vt 0.575693 0.975346
vt 0.575693 0.975346
vt 0.575693 0.975346
vt 0.575693 0.975346
vt 0.575693 0.975346
vn 0.2736 -0.9611 -0.0391
vn 0.3032 -0.9525 -0.0279
vn 0.2432 -0.9695 -0.0302
vn 0.0750 -0.2243 -0.9716
vn 0.2275 -0.9715 -0.0672
vn 0.2703 -0.9472 -0.1727
vn -0.9951 -0.0540 -0.0828
vn -0.9869 0.0897 -0.1340
vn 0.0000 0.0000 -1.0000
vn -0.7906 0.6123 -0.0097
vn -0.7660 0.6403 -0.0570
vn 0.5517 0.7321 -0.3997
vn 0.2519 0.3343 -0.9082
vn 0.0000 -0.0000 1.0000
vn 0.5516 0.7321 -0.3997
vn -0.7660 0.6403 -0.0571
vn -0.7315 0.6805 0.0427
vn 0.5724 0.7597 0.3085
vn 1.0000 -0.0000 0.0000
vn 0.9995 -0.0315 0.0090
vn 0.9995 -0.0306 -0.0116
vn 0.8039 -0.5948 -0.0000
vn -0.7933 0.6088 0.0000
vn -0.7660 0.6402 -0.0570
vn -0.9959 0.0906 0.0000
vn -0.9985 0.0549 0.0000
vn -0.7683 0.6398 0.0207
vn 0.9956 -0.0942 -0.0000
vn 0.5339 0.7084 0.4616
vn 0.5725 0.7597 0.3085
vn 0.0000 -1.0000 -0.0000
vn -0.0000 -0.9617 0.2741
vn 0.9995 -0.0078 -0.0318
vn -0.9985 -0.0468 -0.0288
vn -0.9985 -0.0549 -0.0015
vn -0.9985 0.0550 -0.0000
vn 0.9925 0.1218 0.0090
vn 0.9250 0.2633 0.2741
vn -0.9990 -0.0437 -0.0037
vn -0.9998 -0.0052 -0.0173
usemtl lambert9SG.002
s off
f 16/1/1 17/2/2 19/3/3 20/4/4 18/5/5 15/6/6
f 15/6/7 1/7/8 2/8/9 16/1/9
f 1/7/10 3/9/11 4/10/12 2/8/13
f 5/11/14 6/12/14 7/13/14 8/14/14
f 4/10/15 3/9/16 9/15/17 10/16/18
f 16/1/19 2/8/19 11/17/19 12/18/20 17/2/21
f 10/16/22 7/13/22 11/17/22
f 14/19/23 9/15/17 3/9/24 1/7/10
f 5/11/25 8/14/25 14/19/25 13/20/26
f 8/14/27 9/15/17 14/19/23
f 2/8/22 4/10/22 10/16/22 11/17/22
f 7/13/19 6/12/28 12/18/20 11/17/19
f 8/14/27 7/13/29 10/16/30 9/15/17
f 5/11/31 13/20/32 12/18/20 6/12/28
f 19/3/33 17/2/19 12/18/20
f 18/5/34 20/4/35 13/20/36
f 19/3/37 12/18/20 13/20/32 20/4/38
f 1/7/8 15/6/39 18/5/40 13/20/26 14/19/25
