# Blender v2.83.2 OBJ File: ''
# www.blender.org
mtllib vragfifth2.mtl
o vrag.001
v 0.983799 -1.850602 5.921630
v 1.377317 -1.770938 5.876229
v 1.485483 -1.848492 6.762546
v 0.993638 -1.878219 6.823633
v -1.631029 -1.700934 6.752891
v -1.632229 -1.728630 6.752390
v -1.599541 -0.853426 5.852835
v -1.559777 -1.527568 5.890959
v -1.675184 -0.738885 5.594637
v 1.569043 -0.707624 5.594637
v 1.547602 -1.330543 4.901566
v 1.554964 -1.522101 5.887887
v 1.493400 -0.822166 5.852835
v 1.632229 -1.728630 6.752390
v 1.631029 -1.700934 6.752891
v 1.324123 -1.661551 4.855387
v 0.946017 -1.801744 5.048131
v 1.461933 -1.606284 6.767095
v 1.478376 -1.737024 6.918759
v 1.475765 -1.710906 6.919268
v -1.478376 -1.737024 6.918759
v -1.461933 -1.606284 6.767095
v -1.485483 -1.848492 6.762546
v -1.475765 -1.710906 6.919268
v -1.325178 -1.661166 4.855181
v -1.372490 -1.761112 5.871340
v 1.300038 -0.747026 5.813166
v 1.418636 -0.570175 5.598007
v -1.406178 -0.778287 5.813166
v -1.524777 -0.601435 5.598007
v 0.984993 -1.747226 6.995751
v -0.983085 -1.849897 5.921218
v -0.946213 -1.801621 5.047749
v 0.492790 -1.852256 5.918079
v 0.492790 -1.852256 5.619617
v 0.000000 -1.852256 5.918079
v 0.000000 -1.852256 5.619617
v -0.492790 -1.852256 5.918079
v -0.492790 -1.852256 5.619617
v -0.993638 -1.878219 6.823633
v -0.984993 -1.747226 6.995751
v -0.497260 -1.892690 6.815129
v -0.501950 -1.767026 7.039287
v 0.000000 -1.882712 6.785460
v 0.000000 -1.759652 7.013683
v 0.497260 -1.892690 6.815129
v 0.501950 -1.767026 7.039287
v -0.882509 -0.571793 5.397727
v -1.406178 -0.778287 5.481988
v -1.461933 -1.606284 6.767095
v -1.067930 -0.630023 6.738724
v -0.984993 -1.747226 6.995751
v -1.078681 -0.775628 6.936348
v -1.478376 -1.737024 6.918759
v -1.475765 -1.710906 6.919268
v -1.839589 -1.032712 4.576923
v -1.304240 -0.764691 4.630703
v 0.372233 -0.971809 5.210398
v 1.300038 -0.747026 5.481988
v 1.027376 -1.001451 5.231115
v 0.524817 -0.733431 5.038958
v -0.567311 -0.228014 5.551579
v -0.884087 -0.704980 4.761924
v 0.000000 -0.111307 5.586264
v -0.465849 -0.526408 4.932177
v 0.030053 -0.628030 5.287428
v 0.090456 -0.673719 4.967697
v 1.461933 -1.606284 6.767095
v 0.961789 -0.598763 6.738724
v 0.972540 -0.744367 6.936348
v 1.478376 -1.737024 6.918759
v 0.523579 -0.493208 6.844392
v 0.532260 -0.632386 7.044080
v -0.106141 -0.508803 6.859946
v 0.000000 -0.617483 7.059171
v -0.629720 -0.524469 6.844392
v -0.638401 -0.663646 7.044080
v 1.475765 -1.710906 6.919268
v 0.984993 -1.747226 6.995751
v 0.501950 -1.767026 7.039287
v 0.000000 -1.759652 7.013683
v -0.501950 -1.767026 7.039287
v -1.843817 -1.600137 4.447560
v -1.558708 -0.450155 4.546206
v 1.656501 -1.463863 4.319140
v 1.587028 -0.239247 4.439268
v 0.962656 -1.811884 4.313843
v 1.375034 -1.690914 4.308764
v -1.835880 -1.754431 4.432457
v -1.684276 -1.745503 4.427186
v -1.365371 -1.684667 4.420124
v 1.549760 -0.187477 4.445733
v -1.408868 -0.304826 4.554072
v -0.960996 -1.810733 4.391703
v -0.489268 -1.848952 4.368975
v 0.000002 -1.851830 4.348924
v 0.489169 -1.848863 4.329437
v -1.291157 -0.659662 4.515321
v -1.830337 -0.981030 4.506326
v 1.133401 -0.534431 4.429323
v 0.605689 -0.289948 4.474074
v 0.151341 -0.300384 4.491437
v -0.404376 -0.220302 4.521570
v -0.851026 -0.493903 4.513412
vt 0.575693 0.975346
vt 0.613539 0.975346
vt 0.613539 0.996137
vt 0.575693 0.996137
vt 0.392851 0.503863
vt 0.607149 0.503863
vt 0.607149 0.524653
vt 0.392851 0.524653
vt 0.430829 0.532379
vt 0.608090 0.532379
vt 0.609470 0.555336
vt 0.139716 0.689376
vt 0.359741 0.690148
vt 0.358090 0.717621
vt 0.141385 0.717621
vt 0.142851 0.725347
vt 0.357149 0.725347
vt 0.357149 0.746137
vt 0.142851 0.746137
vt 0.575693 0.924815
vt 0.613539 0.931873
vt 0.613539 0.967621
vt 0.575693 0.967621
vt 0.375000 0.746137
vt 0.357149 0.750000
vt 0.142851 0.750000
vt 0.125000 0.746137
vt 0.607149 0.500000
vt 0.625000 0.503863
vt 0.386461 0.996137
vt 0.386461 1.000000
vt 0.375000 0.996137
vt 0.386461 0.225347
vt 0.375000 0.225347
vt 0.375000 0.221484
vt 0.386461 0.221484
vt 0.613539 0.225347
vt 0.613539 0.221484
vt 0.625000 0.221484
vt 0.625000 0.225347
vt 0.613539 0.971484
vt 0.625000 0.971484
vt 0.625000 0.975347
vt 0.386461 0.975347
vt 0.375000 0.975347
vt 0.392851 0.488539
vt 0.607149 0.488539
vt 0.607149 0.261461
vt 0.392851 0.261461
vt 0.392851 0.250000
vt 0.607149 0.250000
vt 0.386461 0.246137
vt 0.375000 0.246137
vt 0.613539 1.000000
vt 0.575693 1.000000
vt 0.386461 0.939168
vt 0.386461 0.967621
vt 0.379061 0.967621
vt 0.386461 0.187264
vt 0.386461 0.217935
vt 0.375000 0.219147
vt 0.375000 0.191674
vt 0.613539 0.246137
vt 0.625000 0.246137
vt 0.625000 0.996137
vt 0.424307 0.975347
vt 0.424307 0.967621
vt 0.537846 0.975346
vt 0.537846 0.967621
vt 0.500000 0.975347
vt 0.500000 0.967621
vt 0.462154 0.975346
vt 0.462154 0.967621
vt 0.424307 0.996137
vt 0.424307 1.000000
vt 0.462154 0.996137
vt 0.462154 1.000000
vt 0.500000 0.996137
vt 0.500000 1.000000
vt 0.537846 0.996137
vt 0.537846 1.000000
vt 0.424307 0.929368
vt 0.462154 0.916662
vt 0.500000 0.922383
vt 0.537846 0.915049
vt 0.575693 0.225347
vt 0.613539 0.225347
vt 0.613539 0.246137
vt 0.575693 0.246137
vt 0.392851 0.450693
vt 0.607149 0.450693
vt 0.607149 0.488539
vt 0.392851 0.488539
vt 0.575693 0.214236
vt 0.613539 0.215628
vt 0.613539 0.217935
vt 0.575693 0.217935
vt 0.613539 0.250000
vt 0.575693 0.250000
vt 0.424307 0.225347
vt 0.386461 0.225347
vt 0.386461 0.217935
vt 0.424307 0.217935
vt 0.537846 0.225347
vt 0.537846 0.217935
vt 0.500000 0.225347
vt 0.500000 0.217935
vt 0.462154 0.225347
vt 0.462154 0.217935
vt 0.386461 0.246137
vt 0.424307 0.246137
vt 0.424307 0.250000
vt 0.386461 0.250000
vt 0.462154 0.246137
vt 0.462154 0.250000
vt 0.500000 0.246137
vt 0.500000 0.250000
vt 0.537846 0.246137
vt 0.537846 0.250000
vt 0.386461 0.196758
vt 0.424307 0.202124
vt 0.462154 0.204303
vt 0.500000 0.206048
vt 0.537846 0.210324
vt 0.392851 0.261461
vt 0.607149 0.261461
vt 0.607149 0.299307
vt 0.392851 0.299307
vt 0.607149 0.337154
vt 0.392851 0.337154
vt 0.607149 0.375000
vt 0.392851 0.375000
vt 0.607149 0.412846
vt 0.392851 0.412846
vt 0.392851 0.527970
vt 0.386526 0.528516
vt 0.375000 0.528516
vt 0.375000 0.524653
vt 0.625000 0.939376
vt 0.625000 0.967621
vt 0.613539 0.217935
vt 0.613539 0.194807
vt 0.625000 0.196190
vt 0.625000 0.219147
vt 0.391592 0.531287
vn 0.1146 -0.9912 -0.0659
vn -0.9926 -0.0689 -0.0996
vn -0.9690 0.2437 -0.0405
vn 0.9974 -0.0056 0.0717
vn 0.9940 0.0856 -0.0684
vn 0.3238 -0.9450 0.0462
vn 0.5271 0.6711 0.5213
vn 0.6163 -0.5725 0.5408
vn -0.5271 0.6711 0.5213
vn -0.6163 -0.5725 0.5408
vn 0.3774 0.7115 0.5928
vn -0.3774 0.7115 0.5928
vn 0.8226 -0.5582 -0.1085
vn -0.7439 -0.6452 -0.1741
vn 0.7310 -0.0390 -0.6813
vn -0.7310 -0.0390 -0.6813
vn 0.3418 0.7075 0.6186
vn 0.1396 -0.7631 0.6310
vn 0.1880 -0.9815 0.0356
vn 0.6870 0.6663 0.2901
vn -0.3376 0.7011 0.6281
vn 0.7640 -0.6220 -0.1714
vn 0.9985 0.0027 0.0554
vn -0.2595 -0.9618 -0.0870
vn 0.2464 -0.9648 -0.0924
vn 0.0296 -0.9987 -0.0426
vn 0.0000 -1.0000 0.0000
vn -0.0307 -0.9986 -0.0421
vn -0.1396 -0.7631 0.6310
vn -0.0488 -0.8381 0.5433
vn 0.0418 -0.8753 0.4817
vn -0.0418 -0.8753 0.4817
vn 0.0488 -0.8381 0.5433
vn -0.3302 -0.9429 0.0448
vn -0.0977 -0.9952 0.0036
vn -0.0030 -1.0000 -0.0015
vn 0.0030 -1.0000 -0.0015
vn 0.0965 -0.9953 0.0039
vn -0.1240 -0.9896 -0.0724
vn -0.0175 -0.9991 -0.0383
vn 0.0089 -0.9992 -0.0401
vn -0.0089 -0.9992 -0.0401
vn 0.0168 -0.9991 -0.0379
vn -0.7764 0.6154 0.1364
vn -0.1531 0.0470 0.9871
vn -0.4254 0.7166 0.5527
vn -0.9016 0.3706 0.2230
vn 0.0468 0.9976 -0.0512
vn -0.4095 0.9117 -0.0345
vn -0.4165 0.8900 -0.1854
vn -0.1691 0.8768 -0.4501
vn 0.5185 0.6690 -0.5325
vn 0.4070 0.7765 0.4811
vn 0.8581 0.4331 0.2758
vn 0.3236 0.7765 0.5407
vn 0.0133 0.8510 0.5249
vn -0.0589 0.8414 0.5372
vn -0.3236 0.7765 0.5407
vn 0.3048 0.7729 0.5566
vn 0.0061 0.7863 0.6178
vn 0.1552 0.7737 0.6142
vn -0.4803 0.7222 0.4978
vn -0.2856 0.7411 0.6076
vn 0.1526 0.0620 0.9863
vn 0.1639 0.0238 0.9862
vn -0.0106 -0.0219 0.9997
vn 0.0102 -0.0218 0.9997
vn -0.1624 0.0080 0.9867
vn 0.4766 0.8788 0.0246
vn 0.4255 0.8571 -0.2905
vn 0.6023 0.7982 -0.0084
vn -0.1280 0.9595 0.2510
vn -0.5274 0.8471 0.0645
vn -0.2146 -0.9737 0.0770
vn 0.7168 -0.6686 0.1978
vn -0.6827 0.7199 0.1256
vn -0.9768 -0.0665 0.2035
usemtl initialShadingGroup.001
s off
f 1/1/1 2/2/1 3/3/1 4/4/1
f 5/5/2 6/6/2 7/7/2 8/8/2
f 83/9/3 9/10/3 84/11/3
f 85/12/4 86/13/4 10/14/4 11/15/4
f 12/16/5 13/17/5 14/18/5 15/19/5
f 87/20/6 88/21/6 16/22/6 17/23/6
f 14/18/7 18/24/7 19/25/7
f 15/19/8 20/26/8 3/27/8
f 6/6/9 21/28/9 22/29/9
f 23/30/10 24/31/10 5/32/10
f 27/33/11 13/34/11 10/35/11 28/36/11
f 29/37/12 30/38/12 9/39/12 7/40/12
f 2/2/13 16/41/13 11/42/13 12/43/13
f 26/44/14 23/30/14 5/32/14 8/45/14
f 24/46/15 21/47/15 6/6/15 5/5/15
f 19/48/16 20/49/16 15/50/16 14/51/16
f 27/33/17 18/52/17 14/53/17 13/34/17
f 4/4/18 3/3/18 20/54/18 31/55/18
f 91/56/19 25/57/19 90/58/19
f 92/59/20 28/60/20 10/61/20 86/62/20
f 22/63/21 29/37/21 7/40/21 6/64/21
f 3/3/22 2/2/22 12/43/22 15/65/22
f 13/17/23 12/16/23 11/15/23 10/14/23
f 32/66/24 26/44/24 25/57/24 33/67/24
f 2/2/25 1/1/25 17/23/25 16/22/25
f 1/1/26 34/68/26 35/69/26 17/23/26
f 34/68/27 36/70/27 37/71/27 35/69/27
f 36/70/27 38/72/27 39/73/27 37/71/27
f 38/72/28 32/66/28 33/67/28 39/73/28
f 23/30/29 40/74/29 41/75/29 24/31/29
f 40/74/30 42/76/30 43/77/30 41/75/30
f 42/76/31 44/78/31 45/79/31 43/77/31
f 44/78/32 46/80/32 47/81/32 45/79/32
f 46/80/33 4/4/33 31/55/33 47/81/33
f 91/56/34 94/82/34 33/67/34 25/57/34
f 94/82/35 95/83/35 39/73/35 33/67/35
f 95/83/36 96/84/36 37/71/36 39/73/36
f 96/84/37 97/85/37 35/69/37 37/71/37
f 97/85/38 87/20/38 17/23/38 35/69/38
f 26/44/39 32/66/39 40/74/39 23/30/39
f 32/66/40 38/72/40 42/76/40 40/74/40
f 38/72/41 36/70/41 44/78/41 42/76/41
f 36/70/42 34/68/42 46/80/42 44/78/42
f 34/68/43 1/1/43 4/4/43 46/80/43
f 48/86/44 49/87/44 50/88/44 51/89/44
f 52/90/45 53/91/45 54/92/45 55/93/45
f 98/94/46 99/95/46 56/96/46 57/97/46
f 51/89/47 50/88/47 54/98/47 53/99/47
f 58/100/48 59/101/48 60/102/48 61/103/48
f 49/87/49 48/86/49 57/97/49 56/96/49
f 48/86/50 62/104/50 63/105/50 57/97/50
f 62/104/51 64/106/51 65/107/51 63/105/51
f 64/106/52 66/108/52 67/109/52 65/107/52
f 66/108/53 58/100/53 61/103/53 67/109/53
f 68/110/54 69/111/54 70/112/54 71/113/54
f 69/111/55 72/114/55 73/115/55 70/112/55
f 72/114/56 74/116/56 75/117/56 73/115/56
f 74/116/57 76/118/57 77/119/57 75/117/57
f 76/118/58 51/89/58 53/99/58 77/119/58
f 100/120/59 101/121/59 61/103/59 60/102/59
f 101/121/60 102/122/60 67/109/60 61/103/60
f 102/122/61 103/123/61 65/107/61 67/109/61
f 103/123/62 104/124/62 63/105/62 65/107/62
f 104/124/63 98/94/63 57/97/63 63/105/63
f 78/125/64 71/126/64 70/127/64 79/128/64
f 79/128/65 70/127/65 73/129/65 80/130/65
f 80/130/66 73/129/66 75/131/66 81/132/66
f 81/132/67 75/131/67 77/133/67 82/134/67
f 82/134/68 77/133/68 53/91/68 52/90/68
f 59/101/69 58/100/69 69/111/69 68/110/69
f 58/100/70 66/108/70 72/114/70 69/111/70
f 66/108/71 64/106/71 74/116/71 72/114/71
f 64/106/72 62/104/72 76/118/72 74/116/72
f 62/104/73 48/86/73 51/89/73 76/118/73
f 8/8/74 89/135/74 90/136/74 25/137/74 26/138/74
f 16/22/75 88/21/75 85/139/75 11/140/75
f 30/141/76 93/142/76 84/143/76 9/144/76
f 9/10/77 83/9/77 89/145/77 8/8/77 7/7/77
