# Blender v2.83.2 OBJ File: ''
# www.blender.org
mtllib vragquad1.mtl
o vrag
v -6.790741 0.628730 -0.418128
v -6.790741 0.739117 -0.219823
v -6.790741 0.456799 -0.575504
v -6.790741 0.240154 -0.676546
v -6.790741 0.000000 -0.711362
v -6.790741 -0.240154 -0.676546
v -6.790741 -0.456799 -0.575504
v -6.790741 -0.628730 -0.418128
v -6.790741 -0.739116 -0.219823
v -6.790741 -0.777153 -0.000000
v -6.790741 -0.739116 0.219823
v -6.790741 -0.628730 0.418128
v -6.790741 -0.456799 0.575504
v -6.790741 -0.240153 0.676546
v -6.790741 -0.000000 0.711362
v -6.790741 0.240153 0.676546
v -6.790741 0.456799 0.575504
v -6.790741 0.628730 0.418128
v -6.790741 0.739116 0.219823
v -6.790741 0.777153 0.000000
v -6.790741 0.000000 0.000000
v -7.038566 0.914223 -3.421278
v -6.984881 1.504572 -3.421278
v -6.771960 1.344124 -3.421278
v -6.771960 0.914223 -3.421278
v -4.678914 4.509318 -1.675696
v -4.519222 4.388982 -1.675696
v -6.771960 -1.344124 7.669559
v -6.771960 -1.344123 1.254081
v -7.038566 -0.914223 7.669559
v -6.984881 -1.504572 7.669559
v -6.771960 -0.914223 7.669559
v -7.038566 0.914221 7.669559
v -6.771960 0.914221 7.669559
v -6.771960 1.344122 7.669559
v -6.984881 1.504570 7.669559
v -4.678914 4.509318 0.391466
v -4.519222 4.388982 0.391466
v -6.771960 -1.344122 -3.421278
v -6.771960 -0.914221 -3.421278
v -6.771960 -0.914222 1.254081
v -6.771960 1.344123 1.254081
v -6.771960 0.914222 1.254081
v -7.038566 0.914222 1.254081
v -6.984881 1.504571 1.254081
v -7.038566 -0.914221 -3.421278
v -6.984881 -1.504570 -3.421278
v -6.984881 -1.504571 1.254081
v -7.038566 -0.914222 1.254081
v -4.214701 0.739117 -0.219823
v -4.275784 0.628730 -0.418128
v -4.367323 0.456799 -0.575504
v -4.480358 0.240154 -0.676546
v -4.603826 0.000000 -0.711362
v -4.725639 -0.240154 -0.676546
v -4.833873 -0.456799 -0.575504
v -4.917934 -0.628730 -0.418128
v -4.969594 -0.739116 -0.219823
v -4.983795 -0.777153 -0.000000
v -4.959148 -0.739116 0.219823
v -4.898066 -0.628730 0.418128
v -4.806526 -0.456799 0.575504
v -4.693491 -0.240153 0.676546
v -4.570024 -0.000000 0.711362
v -4.448212 0.240153 0.676546
v -4.339977 0.456799 0.575504
v -4.255916 0.628730 0.418128
v -4.204257 0.739116 0.219823
v -4.190054 0.777153 0.000000
v -5.872536 -2.559808 0.909674
v -5.924179 -2.490005 -2.764358
v -6.045040 -2.729213 -2.709833
v -5.993781 -2.796005 0.883330
v -5.820715 -2.629850 4.596301
v -5.943844 -2.861075 4.383838
vt 0.375000 0.510884
vt 0.387500 0.515095
vt 0.387500 0.688440
vt 0.375000 0.688440
vt 0.400000 0.521404
vt 0.400000 0.688440
vt 0.412500 0.529195
vt 0.412500 0.688440
vt 0.425000 0.537705
vt 0.425000 0.688440
vt 0.437500 0.546101
vt 0.437500 0.688440
vt 0.450000 0.553561
vt 0.450000 0.688440
vt 0.462500 0.559355
vt 0.462500 0.688440
vt 0.475000 0.562916
vt 0.475000 0.688440
vt 0.487500 0.563895
vt 0.487500 0.688440
vt 0.500000 0.562196
vt 0.500000 0.688440
vt 0.512500 0.557986
vt 0.512500 0.688440
vt 0.525000 0.551676
vt 0.525000 0.688440
vt 0.537500 0.543885
vt 0.537500 0.688440
vt 0.550000 0.535375
vt 0.550000 0.688440
vt 0.562500 0.526979
vt 0.562500 0.688440
vt 0.575000 0.519519
vt 0.575000 0.688440
vt 0.587500 0.513725
vt 0.587500 0.688440
vt 0.600000 0.510164
vt 0.600000 0.688440
vt 0.612500 0.509186
vt 0.612500 0.688440
vt 0.625000 0.510884
vt 0.625000 0.688440
vt 0.648603 0.892034
vt 0.626409 0.935591
vt 0.500000 0.837500
vt 0.591841 0.970159
vt 0.548284 0.992353
vt 0.500000 1.000000
vt 0.451716 0.992353
vt 0.408159 0.970159
vt 0.373591 0.935591
vt 0.351397 0.892034
vt 0.343750 0.843750
vt 0.351397 0.795466
vt 0.373591 0.751909
vt 0.408159 0.717341
vt 0.451716 0.695147
vt 0.500000 0.687500
vt 0.548284 0.695147
vt 0.591842 0.717341
vt 0.626409 0.751908
vt 0.648603 0.795466
vt 0.656250 0.843750
vt 0.575693 0.975346
vt 0.575693 0.975346
vt 0.575693 0.975346
vt 0.575693 0.975346
vt 0.575693 0.975346
vt 0.575693 0.975346
vt 0.575693 0.975346
vt 0.575693 0.975346
vt 0.575693 0.975346
vt 0.575693 0.975346
vt 0.575693 0.975346
vt 0.575693 0.975346
vt 0.575693 0.975346
vt 0.575693 0.975346
vt 0.575693 0.975346
vt 0.575693 0.975346
vt 0.575693 0.975346
vt 0.575693 0.975346
vt 0.575693 0.975346
vt 0.575693 0.975346
vt 0.575693 0.975346
vt 0.575693 0.975346
vt 0.575693 0.975346
vt 0.575693 0.975346
vt 0.575693 0.975346
vt 0.575693 0.975346
vt 0.575693 0.975346
vt 0.575693 0.975346
vt 0.575693 0.975346
vt 0.575693 0.975346
vt 0.575693 0.975346
vt 0.575693 0.975346
vt 0.575693 0.975346
vt 0.575693 0.975346
vn 0.8051 0.4988 -0.3208
vn 0.7570 0.3426 -0.5564
vn 0.0000 0.7833 -0.6217
vn -0.0000 0.9424 -0.3345
vn 0.7022 0.1360 -0.6989
vn 0.0000 0.5538 -0.8327
vn 0.6499 -0.0763 -0.7562
vn 0.0000 0.2851 -0.9585
vn 0.6043 -0.2770 -0.7471
vn 0.0000 0.0000 -1.0000
vn 0.5631 -0.4595 -0.6868
vn 0.0000 -0.2851 -0.9585
vn 0.5282 -0.6198 -0.5804
vn 0.0000 -0.5538 -0.8327
vn 0.5001 -0.7527 -0.4283
vn 0.0000 -0.7833 -0.6217
vn 0.4817 -0.8447 -0.2333
vn 0.0000 -0.9424 -0.3345
vn 0.4773 -0.8787 -0.0098
vn 0.0000 -1.0000 -0.0000
vn 0.4854 -0.8478 0.2137
vn 0.0000 -0.9424 0.3345
vn 0.5069 -0.7587 0.4092
vn -0.0000 -0.7833 0.6217
vn 0.5377 -0.6278 0.5629
vn -0.0000 -0.5538 0.8327
vn 0.5752 -0.4677 0.6711
vn 0.0000 -0.2852 0.9585
vn 0.6186 -0.2836 0.7328
vn 0.0000 -0.0000 1.0000
vn 0.6662 -0.0795 0.7415
vn 0.0000 0.2852 0.9585
vn 0.7192 0.1369 0.6812
vn 0.0000 0.5538 0.8327
vn 0.7725 0.3450 0.5331
vn 0.0000 0.7833 0.6217
vn 0.8133 0.5045 0.2899
vn 0.0000 0.9424 0.3345
vn 0.8267 0.5624 -0.0170
vn 0.0000 1.0000 0.0000
vn -1.0000 0.0000 0.0000
vn -0.9958 0.0393 -0.0828
vn -0.9869 0.0897 -0.1340
vn -0.7906 0.6123 -0.0097
vn -0.7660 0.6403 -0.0570
vn 0.5517 0.7321 -0.3997
vn 0.2519 0.3343 -0.9082
vn 0.5516 0.7321 -0.3997
vn -0.7660 0.6403 -0.0571
vn -0.7315 0.6805 0.0427
vn 0.5724 0.7597 0.3085
vn 1.0000 0.0000 0.0000
vn 0.9995 0.0315 0.0090
vn 0.9995 -0.0315 0.0090
vn 0.8039 -0.5948 -0.0000
vn -0.9985 0.0549 -0.0000
vn -0.9959 0.0906 0.0000
vn -0.7933 0.6088 0.0000
vn -0.7660 0.6402 -0.0570
vn -0.7683 0.6398 0.0207
vn 0.9956 0.0942 -0.0000
vn 0.9956 -0.0942 -0.0000
vn 0.5339 0.7084 0.4616
vn 0.5725 0.7597 0.3085
vn -0.0000 -0.9617 0.2741
vn -0.9958 -0.0393 -0.0828
vn -0.9869 -0.0897 -0.1340
vn -0.7526 -0.6530 0.0847
vn -0.7683 -0.6398 0.0207
vn -0.7933 -0.6088 -0.0000
vn -0.9959 -0.0906 -0.0000
vn -0.9985 -0.0549 0.0000
vn 0.0000 0.9617 0.2741
vn -0.9958 0.0392 -0.0828
vn -0.9958 -0.0392 -0.0828
vn -0.9985 -0.0550 -0.0000
vn -0.9985 0.0550 -0.0000
vn 0.6703 -0.0516 -0.7403
vn 0.6326 -0.7014 0.3283
vn 0.5339 -0.7084 0.4616
vn -0.7906 -0.6123 -0.0097
vn -0.7870 -0.6170 0.0026
vn -0.7312 -0.6809 0.0414
vn 0.2519 -0.3343 -0.9082
vn -0.6615 -0.7499 0.0123
vn 0.8039 0.5948 0.0000
vn 0.8394 -0.5435 -0.0041
vn 0.8901 -0.4546 -0.0318
vn 0.8904 -0.4547 -0.0212
vn -0.3991 -0.8866 -0.2336
usemtl initialShadingGroup
s 1
f 50/1/1 51/2/2 1/3/3 2/4/4
f 51/2/2 52/5/5 3/6/6 1/3/3
f 52/5/5 53/7/7 4/8/8 3/6/6
f 53/7/7 54/9/9 5/10/10 4/8/8
f 54/9/9 55/11/11 6/12/12 5/10/10
f 55/11/11 56/13/13 7/14/14 6/12/12
f 56/13/13 57/15/15 8/16/16 7/14/14
f 57/15/15 58/17/17 9/18/18 8/16/16
f 58/17/17 59/19/19 10/20/20 9/18/18
f 59/19/19 60/21/21 11/22/22 10/20/20
f 60/21/21 61/23/23 12/24/24 11/22/22
f 61/23/23 62/25/25 13/26/26 12/24/24
f 62/25/25 63/27/27 14/28/28 13/26/26
f 63/27/27 64/29/29 15/30/30 14/28/28
f 64/29/29 65/31/31 16/32/32 15/30/30
f 65/31/31 66/33/33 17/34/34 16/32/32
f 66/33/33 67/35/35 18/36/36 17/34/34
f 67/35/35 68/37/37 19/38/38 18/36/36
f 68/37/37 69/39/39 20/40/40 19/38/38
f 69/39/39 50/41/1 2/42/4 20/40/40
f 2/43/41 1/44/41 21/45/41
f 1/44/41 3/46/41 21/45/41
f 3/46/41 4/47/41 21/45/41
f 4/47/41 5/48/41 21/45/41
f 5/48/41 6/49/41 21/45/41
f 6/49/41 7/50/41 21/45/41
f 7/50/41 8/51/41 21/45/41
f 8/51/41 9/52/41 21/45/41
f 9/52/41 10/53/41 21/45/41
f 10/53/41 11/54/41 21/45/41
f 11/54/41 12/55/41 21/45/41
f 12/55/41 13/56/41 21/45/41
f 13/56/41 14/57/41 21/45/41
f 14/57/41 15/58/41 21/45/41
f 15/58/41 16/59/41 21/45/41
f 16/59/41 17/60/41 21/45/41
f 17/60/41 18/61/41 21/45/41
f 18/61/41 19/62/41 21/45/41
f 19/62/41 20/63/41 21/45/41
f 20/63/41 2/43/41 21/45/41
f 64/29/29 63/27/27 62/25/25 61/23/23 60/21/21 59/19/19 58/17/17 57/15/15 56/13/13 55/11/11 54/9/9 53/7/7 52/5/5 51/2/2 50/1/1 69/39/39 68/37/37 67/35/35 66/33/33 65/31/31
usemtl lambert9SG
s off
f 22/64/42 23/65/43 24/66/10 25/67/10
f 23/65/44 26/68/45 27/69/46 24/66/47
f 30/70/30 31/71/30 28/72/30 32/73/30
f 33/74/30 34/75/30 35/76/30 36/77/30
f 27/69/48 26/68/49 37/78/50 38/79/51
f 39/80/52 40/81/52 41/82/53 29/83/52
f 25/67/52 24/66/52 42/84/52 43/85/54
f 38/79/55 35/76/55 42/84/55
f 23/65/43 22/64/42 44/86/56 45/87/57
f 45/87/58 37/78/50 26/68/59 23/65/44
f 33/74/57 36/77/57 45/87/57 44/86/56
f 36/77/60 37/78/50 45/87/58
f 32/73/61 28/72/52 29/83/52 41/82/53
f 24/66/55 27/69/55 38/79/55 42/84/55
f 35/76/52 34/75/62 43/85/54 42/84/52
f 36/77/60 35/76/63 38/79/64 37/78/50
f 33/74/20 44/86/65 43/85/54 34/75/62
f 41/82/53 40/81/52 25/67/52 43/85/54
f 46/88/66 40/81/10 39/80/10 47/89/67
f 75/90/68 31/71/69 48/91/70 73/92/70
f 31/71/71 30/70/71 49/93/72 48/91/71
f 46/88/66 47/89/67 48/91/71 49/93/72
f 30/70/40 32/73/61 41/82/53 49/93/73
f 22/64/74 25/67/10 40/81/10 46/88/75
f 46/88/66 49/93/76 44/86/77 22/64/42
f 41/82/53 43/85/54 44/86/65 49/93/73
f 31/71/69 75/90/78 74/94/79 28/72/80
f 47/89/81 72/95/82 73/92/83 48/91/70
f 47/89/81 39/80/84 71/96/84 72/95/85
f 29/83/86 70/97/86 71/96/86 39/80/86
f 28/72/86 74/94/86 70/97/86 29/83/86
f 73/92/87 72/95/88 71/96/89 70/97/89 74/94/89 75/90/90
